<?xml version="1.0" encoding="UTF-8"?>
<svg id="Camada_1" xmlns="http://www.w3.org/2000/svg" version="1.1" viewBox="0 0 1600 600">
  <!-- Generator: Adobe Illustrator 30.1.0, SVG Export Plug-In . SVG Version: 2.1.1 Build 136)  -->
  <defs>
    <style>
      .st0 {
        fill: #f49908;
      }

      .st1 {
        fill: #fff;
      }
    </style>
  </defs>
  <path class="st1" d="M571.07,280.93c-3.13,85.62-52.62,162.59-125.4,200.29-81.17,42.05-177.47,34.35-248.83-21.08,31.27,9.38,61.41,19.21,93.16,19.31,4.87.02,5.65-7,.91-8.1-80.88-18.81-142.19-80.65-161.02-160.92-1.12-4.76-8.11-3.97-8.11.91.05,31.99,10.31,61.79,19.17,92.94-55.01-71.16-62.92-167.59-20.91-248.65,37.46-72.29,112.74-120.98,197.9-125.48C156.41,15.3,19.75,142.41,16.27,300.5c-3.51,159.62,127.43,289.42,286.99,284.45,158.32-4.93,283.52-142.61,267.81-304.02Z"/>
  <path class="st0" d="M242.45,96.53c64.47-31.63,134.79-30.75,193.78,5.34.54,1.95-.71,4.07-2.86,4.37l-54.25,7.7c-3.99.57-3.99,6.33,0,6.9l54.25,7.7c2.5.36,3.8,3.17,2.46,5.31l-17.74,28.1c-1.98,3.14,1.67,6.79,4.8,4.8l27.98-17.67c2.17-1.37,5.02,0,5.32,2.53l7.8,65.74c.49,4.1,6.43,4.1,6.92,0l7.8-65.74c.3-2.54,3.15-3.9,5.32-2.53l8.31,5.25c43.87,61.33,47.48,145.31,7.38,211.94,45.42-57.2,45.43-137.87,12.36-199.49,3.12,1.89,6.71-1.71,4.74-4.83l-17.74-28.09c-1.35-2.14-.04-4.95,2.46-5.31l54.55-7.7c3.99-.56,3.99-6.33,0-6.9l-54.55-7.7c-2.5-.35-3.81-3.17-2.46-5.31l17.74-28.09c1.98-3.14-1.67-6.79-4.8-4.8l-27.98,17.67c-2.16,1.37-5.01,0-5.32-2.53l-7.79-65.32c-.49-4.09-6.43-4.09-6.92,0l-7.79,65.32c-.3,2.54-3.15,3.9-5.32,2.53l-27.98-17.67c-3.14-1.98-6.79,1.67-4.8,4.8l7.27,11.52c-41.45-18.55-117.4-34.71-182.91,12.18Z"/>
  <g>
    <g>
      <path class="st1" d="M750.59,90.34v112.39c0,14.77,11.54,26.77,21,26.77h.23v2.31h-44.77v-2.31h.23c9.46,0,21.23-12,21.23-26.77v-106.39c0-14.77-6.46-23.77-15.92-23.77v-2.31h29.31l108.93,124.39v-93.69c0-14.77-11.54-28.39-21-28.39h-.23v-2.31h42.69v2.31h-.23c-9.46,0-19.15,13.62-19.15,28.39v130.85h-2.08l-120.23-141.46Z"/>
      <path class="st1" d="M902.43,151.03c0-41.54,27.92-83.08,84-83.08s86.31,41.08,86.31,82.39-29.08,83.77-86.31,83.77-84-41.54-84-83.08ZM923.89,138.8c0,43.15,26.31,92.08,70.39,92.08,40.39,0,57.46-32.08,57.46-66.69,0-43.15-28.38-93.23-74.31-93.23-37.39,0-53.54,33-53.54,67.85ZM987.35,178.72h-1.62v-11.77c0-9.23-5.31-15.23-13.62-15.23h-1.38v-1.38h1.38c8.31,0,13.62-6.23,13.62-15.23v-11.77h1.62v11.77c0,9,5.54,15.23,13.62,15.23h2.54v1.38h-2.54c-8.08,0-13.62,6-13.62,15.23v11.77Z"/>
      <path class="st1" d="M1112.42,101.65c0,44.08,113.77,45.92,113.77,92.08,0,27.23-33,41.77-66.23,41.77s-67.85-15-67.85-46.85h2.08c0,30.46,32.54,43.39,63,43.39,26.77,0,52.15-9.92,52.15-26.54,0-43.39-111.23-40.15-111.23-93.23,0-31.15,29.31-44.54,59.08-44.54,66,0,69.92,56.54,46.85,56.54-4.85,0-9.23-3.46-9.23-9.46,0-26.31-13.62-44.08-43.39-44.08-20.08,0-39,11.08-39,30.92Z"/>
      <path class="st1" d="M1263.34,101.65c0,44.08,113.77,45.92,113.77,92.08,0,27.23-33,41.77-66.23,41.77s-67.85-15-67.85-46.85h2.08c0,30.46,32.54,43.39,63,43.39,26.77,0,52.15-9.92,52.15-26.54,0-43.39-111.23-40.15-111.23-93.23,0-31.15,29.31-44.54,59.08-44.54,66,0,69.92,56.54,46.85,56.54-4.85,0-9.23-3.46-9.23-9.46,0-26.31-13.62-44.08-43.39-44.08-20.08,0-39,11.08-39,30.92Z"/>
      <path class="st1" d="M1462.71,88.26l-50.54,112.39c-1.62,3.23-2.31,6.23-2.31,8.54,0,7.85,3,20.31,14.54,20.31h1.15v2.31h-46.85v-2.31c10.85,0,24-13.62,28.15-22.62l55.15-120.69-6.92-15.92h23.77l63,144.69c2.54,5.77,10.61,14.54,17.31,14.54v2.31h-50.08v-2.31h.69c5.77,0,7.85-3,7.85-7.15,0-3.23-.92-6.92-2.54-10.38l-52.39-123.69ZM1460.18,213.34h-1.39v-11.77c0-9.23-5.54-15.23-13.85-15.23h-1.38v-1.39h1.38c8.31,0,13.85-6.23,13.85-15.46v-11.54h1.39v11.54c0,9.23,5.54,15.46,13.84,15.46h2.54v1.39h-2.54c-8.31,0-13.84,6-13.84,15.23v11.77Z"/>
    </g>
    <g>
      <path class="st1" d="M834.92,329l-65.25,145.09c-2.09,4.17-2.98,8.04-2.98,11.02,0,10.13,3.87,26.22,18.77,26.22h1.49v2.98h-60.48v-2.98c14,0,30.98-17.58,36.35-29.2l71.21-155.82-8.94-20.56h30.69l81.34,186.8c3.28,7.45,13.7,18.77,22.34,18.77v2.98h-64.65v-2.98h.89c7.45,0,10.13-3.87,10.13-9.24,0-4.17-1.19-8.94-3.28-13.41l-67.63-159.69ZM831.65,490.48h-1.79v-15.19c0-11.92-7.15-19.66-17.88-19.66h-1.79v-1.79h1.79c10.73,0,17.88-8.04,17.88-19.96v-14.9h1.79v14.9c0,11.92,7.15,19.96,17.87,19.96h3.28v1.79h-3.28c-10.73,0-17.87,7.75-17.87,19.66v15.19Z"/>
      <path class="st1" d="M1127.48,348.66v86.7c0,56.61-41.71,81.93-76.57,81.93-50.05,0-81.04-25.33-81.04-81.93v-99.21c-.89-16.98-8.94-27.41-20.56-27.41v-2.98h69.12v2.98c-11.02,0-18.77,9.24-20.26,25.03v116.79c0,37.84,29.2,57.8,59.59,57.8,33.07,0,67.33-23.83,67.33-73.29v-86.4c0-23.24-14.9-39.92-27.11-39.92h-.3v-2.98h54.82v2.98h-.3c-12.22,0-24.73,16.68-24.73,39.92ZM1057.47,445.79h-2.09v-15.2c0-11.92-6.85-19.66-17.58-19.66h-1.79v-1.79h1.79c10.73,0,17.58-8.04,17.58-19.66v-15.19h2.09v15.19c0,11.62,7.15,19.66,17.87,19.66h2.98v1.79h-2.98c-10.73,0-17.87,7.75-17.87,19.66v15.2Z"/>
      <path class="st1" d="M1154.87,308.74v-2.98h77.16c103.68,0,109.34,80.74,40.22,97.72l64.95,89.08c4.77,6.56,14.3,18.77,23.24,18.77h-.6v2.98h-40.52l-74.78-107.55h-40.52v73.89c0,19.07,8.34,30.69,20.56,30.69h.3v2.98h-70.01v-2.98h.3c12.22,0,20.56-11.62,20.56-30.69v-141.22c0-19.07-8.34-30.69-20.56-30.69h-.3ZM1244.55,404.08c49.16,0,77.46-95.93-12.51-95.93h-28.01v95.93h40.52Z"/>
      <path class="st1" d="M1435.22,329l-65.25,145.09c-2.09,4.17-2.98,8.04-2.98,11.02,0,10.13,3.87,26.22,18.77,26.22h1.49v2.98h-60.48v-2.98c14,0,30.98-17.58,36.35-29.2l71.21-155.82-8.94-20.56h30.69l81.34,186.8c3.28,7.45,13.7,18.77,22.34,18.77v2.98h-64.65v-2.98h.89c7.45,0,10.13-3.87,10.13-9.24,0-4.17-1.19-8.94-3.28-13.41l-67.63-159.69ZM1431.94,490.48h-1.79v-15.19c0-11.92-7.15-19.66-17.88-19.66h-1.79v-1.79h1.79c10.73,0,17.88-8.04,17.88-19.96v-14.9h1.79v14.9c0,11.92,7.15,19.96,17.87,19.96h3.28v1.79h-3.28c-10.73,0-17.87,7.75-17.87,19.66v15.19Z"/>
    </g>
  </g>
</svg>