<?xml version="1.0" encoding="UTF-8"?>
<svg id="Camada_1" xmlns="http://www.w3.org/2000/svg" version="1.1" viewBox="0 0 120 56">
  <!-- Generator: Adobe Illustrator 30.1.0, SVG Export Plug-In . SVG Version: 2.1.1 Build 136)  -->
  <defs>
    <style>
      .st0 {
        fill: #f49908;
      }

      .st1, .st2, .st3 {
        fill: #5b2a86;
      }

      .st2 {
        font-size: 16.5px;
      }

      .st2, .st3 {
        font-family: RosieBrownSerifDemo, 'Rosie Brown Serif Demo';
      }

      .st4 {
        font-family: MyriadPro-Regular, 'Myriad Pro';
        font-size: 12px;
      }

      .st3 {
        font-size: 19.61px;
      }
    </style>
  </defs>
  <g>
    <text class="st3" transform="translate(-509.61 22.52)"><tspan x="0" y="0">Nossa</tspan><tspan x="0" y="23.53">aura</tspan></text>
    <path class="st1" d="M-522.56,26.35c-.26,7.14-4.39,13.55-10.45,16.69-6.76,3.5-14.79,2.86-20.74-1.76,2.61.78,5.12,1.6,7.76,1.61.41,0,.47-.58.08-.68-6.74-1.57-11.85-6.72-13.42-13.41-.09-.4-.68-.33-.68.08,0,2.67.86,5.15,1.6,7.75-4.59-5.93-5.24-13.97-1.74-20.72,3.12-6.02,9.4-10.08,16.49-10.46-13.46-1.24-24.85,9.36-25.14,22.53-.29,13.3,10.62,24.12,23.92,23.71,13.19-.41,23.63-11.89,22.32-25.34Z"/>
    <path class="st0" d="M-549.95,10.98c5.37-2.64,11.23-2.56,16.15.44.05.16-.06.34-.24.36l-4.52.64c-.33.05-.33.53,0,.57l4.52.64c.21.03.32.26.2.44l-1.48,2.34c-.17.26.14.57.4.4l2.33-1.47c.18-.11.42,0,.44.21l.65,5.48c.04.34.54.34.58,0l.65-5.48c.03-.21.26-.33.44-.21l.69.44c3.66,5.11,3.96,12.11.61,17.66,3.79-4.77,3.79-11.49,1.03-16.63.26.16.56-.14.4-.4l-1.48-2.34c-.11-.18,0-.41.2-.44l4.55-.64c.33-.05.33-.53,0-.57l-4.55-.64c-.21-.03-.32-.26-.2-.44l1.48-2.34c.17-.26-.14-.57-.4-.4l-2.33,1.47c-.18.11-.42,0-.44-.21l-.65-5.44c-.04-.34-.54-.34-.58,0l-.65,5.44c-.03.21-.26.32-.44.21l-2.33-1.47c-.26-.17-.57.14-.4.4l.61.96c-3.45-1.55-9.78-2.89-15.24,1.01Z"/>
  </g>
  <g>
    <text class="st2" transform="translate(55.11 23.44)"><tspan x="0" y="0">Nossa</tspan><tspan x="0" y="19.8">aura</tspan></text>
    <path class="st1" d="M44.21,26.67c-.22,6.01-3.69,11.4-8.8,14.05-5.69,2.95-12.45,2.41-17.45-1.48,2.19.66,4.31,1.35,6.53,1.35.34,0,.4-.49.06-.57-5.67-1.32-9.97-5.66-11.29-11.29-.08-.33-.57-.28-.57.06,0,2.24.72,4.33,1.34,6.52-3.86-4.99-4.41-11.75-1.47-17.44,2.63-5.07,7.91-8.49,13.88-8.8-11.33-1.04-20.91,7.87-21.16,18.96-.25,11.2,8.94,20.3,20.13,19.95,11.1-.35,19.88-10,18.78-21.32Z"/>
    <path class="st0" d="M21.16,13.73c4.52-2.22,9.45-2.16,13.59.37.04.14-.05.29-.2.31l-3.8.54c-.28.04-.28.44,0,.48l3.8.54c.18.02.27.22.17.37l-1.24,1.97c-.14.22.12.48.34.34l1.96-1.24c.15-.1.35,0,.37.18l.55,4.61c.03.29.45.29.49,0l.55-4.61c.02-.18.22-.27.37-.18l.58.37c3.08,4.3,3.33,10.19.52,14.86,3.19-4.01,3.19-9.67.87-13.99.22.13.47-.12.33-.34l-1.24-1.97c-.09-.15,0-.35.17-.37l3.83-.54c.28-.04.28-.44,0-.48l-3.83-.54c-.18-.02-.27-.22-.17-.37l1.24-1.97c.14-.22-.12-.48-.34-.34l-1.96,1.24c-.15.1-.35,0-.37-.18l-.55-4.58c-.03-.29-.45-.29-.49,0l-.55,4.58c-.02.18-.22.27-.37.18l-1.96-1.24c-.22-.14-.48.12-.34.34l.51.81c-2.91-1.3-8.23-2.43-12.83.85Z"/>
  </g>
  <text class="st4" transform="translate(-961.62 -41.31)"><tspan x="0" y="0">--color-primary: #5b2a86;</tspan><tspan x="0" y="14.4" xml:space="preserve">  --color-secondary: #6eed96;</tspan></text>
</svg>