<?xml version="1.0" encoding="UTF-8"?>
<svg id="Camada_1" xmlns="http://www.w3.org/2000/svg" version="1.1" viewBox="0 0 120 56">
  <!-- Generator: Adobe Illustrator 30.1.0, SVG Export Plug-In . SVG Version: 2.1.1 Build 136)  -->
  <defs>
    <style>
      .st0 {
        fill: #f49908;
      }

      .st1 {
        fill: #5b2a86;
      }
    </style>
  </defs>
  <path class="st1" d="M44.21,26.67c-.22,6.01-3.69,11.4-8.8,14.05-5.69,2.95-12.45,2.41-17.45-1.48,2.19.66,4.31,1.35,6.53,1.35.34,0,.4-.49.06-.57-5.67-1.32-9.97-5.66-11.29-11.29-.08-.33-.57-.28-.57.06,0,2.24.72,4.33,1.34,6.52-3.86-4.99-4.41-11.75-1.47-17.44,2.63-5.07,7.91-8.49,13.88-8.8-11.33-1.04-20.91,7.87-21.16,18.96-.25,11.2,8.94,20.3,20.13,19.95,11.1-.35,19.88-10,18.78-21.32Z"/>
  <path class="st0" d="M21.16,13.73c4.52-2.22,9.45-2.16,13.59.37.04.14-.05.29-.2.31l-3.8.54c-.28.04-.28.44,0,.48l3.8.54c.18.02.27.22.17.37l-1.24,1.97c-.14.22.12.48.34.34l1.96-1.24c.15-.1.35,0,.37.18l.55,4.61c.03.29.45.29.49,0l.55-4.61c.02-.18.22-.27.37-.18l.58.37c3.08,4.3,3.33,10.19.52,14.86,3.19-4.01,3.19-9.67.87-13.99.22.13.47-.12.33-.34l-1.24-1.97c-.09-.15,0-.35.17-.37l3.83-.54c.28-.04.28-.44,0-.48l-3.83-.54c-.18-.02-.27-.22-.17-.37l1.24-1.97c.14-.22-.12-.48-.34-.34l-1.96,1.24c-.15.1-.35,0-.37-.18l-.55-4.58c-.03-.29-.45-.29-.49,0l-.55,4.58c-.02.18-.22.27-.37.18l-1.96-1.24c-.22-.14-.48.12-.34.34l.51.81c-2.91-1.3-8.23-2.43-12.83.85Z"/>
  <g>
    <g>
      <path class="st1" d="M56.91,13.51v7.99c0,1.05.82,1.9,1.49,1.9h.02v.16h-3.18v-.16h.02c.67,0,1.51-.85,1.51-1.9v-7.56c0-1.05-.46-1.69-1.13-1.69v-.16h2.08l7.74,8.84v-6.66c0-1.05-.82-2.02-1.49-2.02h-.02v-.16h3.03v.16h-.02c-.67,0-1.36.97-1.36,2.02v9.3h-.15l-8.55-10.05Z"/>
      <path class="st1" d="M67.7,17.82c0-2.95,1.98-5.9,5.97-5.9s6.13,2.92,6.13,5.86-2.07,5.95-6.13,5.95-5.97-2.95-5.97-5.9ZM69.22,16.95c0,3.07,1.87,6.54,5,6.54,2.87,0,4.08-2.28,4.08-4.74,0-3.07-2.02-6.63-5.28-6.63-2.66,0-3.81,2.35-3.81,4.82ZM73.73,19.79h-.11v-.84c0-.66-.38-1.08-.97-1.08h-.1v-.1h.1c.59,0,.97-.44.97-1.08v-.84h.11v.84c0,.64.39,1.08.97,1.08h.18v.1h-.18c-.57,0-.97.43-.97,1.08v.84Z"/>
      <path class="st1" d="M82.62,14.31c0,3.13,8.09,3.26,8.09,6.54,0,1.94-2.35,2.97-4.71,2.97s-4.82-1.07-4.82-3.33h.15c0,2.17,2.31,3.08,4.48,3.08,1.9,0,3.71-.71,3.71-1.89,0-3.08-7.91-2.85-7.91-6.63,0-2.21,2.08-3.17,4.2-3.17,4.69,0,4.97,4.02,3.33,4.02-.34,0-.66-.25-.66-.67,0-1.87-.97-3.13-3.08-3.13-1.43,0-2.77.79-2.77,2.2Z"/>
      <path class="st1" d="M93.35,14.31c0,3.13,8.09,3.26,8.09,6.54,0,1.94-2.35,2.97-4.71,2.97s-4.82-1.07-4.82-3.33h.15c0,2.17,2.31,3.08,4.48,3.08,1.9,0,3.71-.71,3.71-1.89,0-3.08-7.91-2.85-7.91-6.63,0-2.21,2.08-3.17,4.2-3.17,4.69,0,4.97,4.02,3.33,4.02-.34,0-.66-.25-.66-.67,0-1.87-.97-3.13-3.08-3.13-1.43,0-2.77.79-2.77,2.2Z"/>
      <path class="st1" d="M107.52,13.36l-3.59,7.99c-.11.23-.16.44-.16.61,0,.56.21,1.44,1.03,1.44h.08v.16h-3.33v-.16c.77,0,1.71-.97,2-1.61l3.92-8.58-.49-1.13h1.69l4.48,10.28c.18.41.75,1.03,1.23,1.03v.16h-3.56v-.16h.05c.41,0,.56-.21.56-.51,0-.23-.07-.49-.18-.74l-3.72-8.79ZM107.34,22.25h-.1v-.84c0-.66-.39-1.08-.98-1.08h-.1v-.1h.1c.59,0,.98-.44.98-1.1v-.82h.1v.82c0,.66.39,1.1.98,1.1h.18v.1h-.18c-.59,0-.98.43-.98,1.08v.84Z"/>
    </g>
    <g>
      <path class="st1" d="M62.9,30.47l-4.64,10.31c-.15.3-.21.57-.21.78,0,.72.28,1.86,1.33,1.86h.11v.21h-4.3v-.21c1,0,2.2-1.25,2.58-2.08l5.06-11.07-.64-1.46h2.18l5.78,13.28c.23.53.97,1.33,1.59,1.33v.21h-4.6v-.21h.06c.53,0,.72-.28.72-.66,0-.3-.08-.64-.23-.95l-4.81-11.35ZM62.67,41.95h-.13v-1.08c0-.85-.51-1.4-1.27-1.4h-.13v-.13h.13c.76,0,1.27-.57,1.27-1.42v-1.06h.13v1.06c0,.85.51,1.42,1.27,1.42h.23v.13h-.23c-.76,0-1.27.55-1.27,1.4v1.08Z"/>
      <path class="st1" d="M83.69,31.87v6.16c0,4.02-2.96,5.82-5.44,5.82-3.56,0-5.76-1.8-5.76-5.82v-7.05c-.06-1.21-.64-1.95-1.46-1.95v-.21h4.91v.21c-.78,0-1.33.66-1.44,1.78v8.3c0,2.69,2.08,4.11,4.24,4.11,2.35,0,4.79-1.69,4.79-5.21v-6.14c0-1.65-1.06-2.84-1.93-2.84h-.02v-.21h3.9v.21h-.02c-.87,0-1.76,1.19-1.76,2.84ZM78.72,38.77h-.15v-1.08c0-.85-.49-1.4-1.25-1.4h-.13v-.13h.13c.76,0,1.25-.57,1.25-1.4v-1.08h.15v1.08c0,.83.51,1.4,1.27,1.4h.21v.13h-.21c-.76,0-1.27.55-1.27,1.4v1.08Z"/>
      <path class="st1" d="M85.64,29.03v-.21h5.48c7.37,0,7.77,5.74,2.86,6.95l4.62,6.33c.34.47,1.02,1.33,1.65,1.33h-.04v.21h-2.88l-5.32-7.64h-2.88v5.25c0,1.36.59,2.18,1.46,2.18h.02v.21h-4.98v-.21h.02c.87,0,1.46-.83,1.46-2.18v-10.04c0-1.36-.59-2.18-1.46-2.18h-.02ZM92.01,35.81c3.49,0,5.51-6.82-.89-6.82h-1.99v6.82h2.88Z"/>
      <path class="st1" d="M105.57,30.47l-4.64,10.31c-.15.3-.21.57-.21.78,0,.72.28,1.86,1.33,1.86h.11v.21h-4.3v-.21c1,0,2.2-1.25,2.58-2.08l5.06-11.07-.64-1.46h2.18l5.78,13.28c.23.53.97,1.33,1.59,1.33v.21h-4.6v-.21h.06c.53,0,.72-.28.72-.66,0-.3-.08-.64-.23-.95l-4.81-11.35ZM105.33,41.95h-.13v-1.08c0-.85-.51-1.4-1.27-1.4h-.13v-.13h.13c.76,0,1.27-.57,1.27-1.42v-1.06h.13v1.06c0,.85.51,1.42,1.27,1.42h.23v.13h-.23c-.76,0-1.27.55-1.27,1.4v1.08Z"/>
    </g>
  </g>
</svg>