<?xml version="1.0" encoding="UTF-8"?>
<svg id="Camada_1" xmlns="http://www.w3.org/2000/svg" version="1.1" viewBox="0 0 120 120">
  <!-- Generator: Adobe Illustrator 30.1.0, SVG Export Plug-In . SVG Version: 2.1.1 Build 136)  -->
  <defs>
    <style>
      .st0 {
        fill: #f49908;
      }

      .st1 {
        fill: #5b2a86;
      }

      .st2 {
        fill: #fff;
      }
    </style>
  </defs>
  <rect class="st2" width="120" height="120"/>
  <g>
    <path class="st1" d="M108.53,56.67c-.55,15.01-9.23,28.51-21.99,35.12-14.23,7.37-31.12,6.02-43.63-3.7,5.48,1.65,10.77,3.37,16.33,3.39.85,0,.99-1.23.16-1.42-14.18-3.3-24.93-14.14-28.23-28.22-.2-.83-1.42-.7-1.42.16,0,5.61,1.81,10.84,3.36,16.3-9.65-12.48-11.03-29.39-3.67-43.6,6.57-12.67,19.77-21.21,34.7-22-28.32-2.61-52.29,19.68-52.9,47.4-.62,27.99,22.34,50.75,50.32,49.88,27.76-.86,49.71-25.01,46.96-53.31Z"/>
    <path class="st0" d="M50.91,24.33c11.3-5.55,23.64-5.39,33.98.94.09.34-.12.71-.5.77l-9.51,1.35c-.7.1-.7,1.11,0,1.21l9.51,1.35c.44.06.67.56.43.93l-3.11,4.93c-.35.55.29,1.19.84.84l4.91-3.1c.38-.24.88,0,.93.44l1.37,11.53c.09.72,1.13.72,1.21,0l1.37-11.53c.05-.45.55-.68.93-.44l1.46.92c7.69,10.75,8.33,25.48,1.29,37.16,7.96-10.03,7.97-24.17,2.17-34.98.55.33,1.18-.3.83-.85l-3.11-4.93c-.24-.37,0-.87.43-.93l9.57-1.35c.7-.1.7-1.11,0-1.21l-9.57-1.35c-.44-.06-.67-.56-.43-.93l3.11-4.93c.35-.55-.29-1.19-.84-.84l-4.91,3.1c-.38.24-.88,0-.93-.44l-1.37-11.45c-.09-.72-1.13-.72-1.21,0l-1.37,11.45c-.05.45-.55.68-.93.44l-4.91-3.1c-.55-.35-1.19.29-.84.84l1.28,2.02c-7.27-3.25-20.59-6.09-32.07,2.14Z"/>
  </g>
</svg>